# xmcd
#
# Track frame offsets:
#	150
#	7309
#	20965
#	41355
#	57470
#	77672
#	92833
#	113795
#	139169
#	149063
#	174337
#	192467
#
# Disc length: 3388 seconds
#
# Revision: 1
# Processed by: cddbd v1.5.2PL0 Copyright (c) Steve Scherf et al.
# Submitted via: audiograbber 1.83.01
#
DISCID=b00d3a0c
DTITLE=Ormondroyd - Hit and Hope
DYEAR=2006
DGENRE=Indie
TTITLE0=Wenceslas
TTITLE1=DDD
TTITLE2=Perfect Designs
TTITLE3=Eyes On The Road
TTITLE4=Quick.  Run.
TTITLE5=Turn It Over
TTITLE6=Given Time Those Hearts Will Crack
TTITLE7=El Potential
TTITLE8=Scarlet
TTITLE9=It's Gone Too Far
TTITLE10=If I'd known it was the last time I'd have opened both my eyes...
TTITLE11=The Storm
EXTD=
EXTT0=
EXTT1=
EXTT2=
EXTT3=
EXTT4=
EXTT5=
EXTT6=
EXTT7=
EXTT8=
EXTT9=
EXTT10=
EXTT11=
PLAYORDER=
